# xmcd
#
# Track frame offsets:
#	150
#	15350
#	32712
#	58175
#	72725
#	86150
#	97887
#	109737
#	141200
#	154887
#	170487
#	181625
#	193550
#	203000
#	226212
#
# Disc length: 3171
#
# Revision: 3
# Processed by: cddbd v1.5.1PL0 Copyright (c) Steve Scherf et al.
# Submitted via: ExactAudioCopy v0.90b4
# Normalized: r2:DSETVAR1
#
DISCID=c40c610f
DTITLE=Various Artist - Blues Juke Box Hits Vol. 1
DYEAR=2000
DGENRE=Blues
TTITLE0=Canned Heat - On the Road Again
TTITLE1=Bo Diddley - You Can't Judge a Book
TTITLE2=Howlin' Wolf - Red Rooster
TTITLE3=Big Bill Broonzy - Baby Please Don't Go
TTITLE4=Bessie Smith - Mean Old Bedbug Blues
TTITLE5=Champion Jack Dupree - Everybody's Blues
TTITLE6=John Lee Hooker - Crawling King Snake
TTITLE7=Lightin' Hopkins - Big Black Cadillac Man
TTITLE8=Leadbelly - Alberta
TTITLE9=Memphis Slim - Three Women Blues
TTITLE10=Big Joe Williams - Jinx Blues
TTITLE11=John Lee Hooker - Whiskey and Wimmen
TTITLE12=Canned Heat - Rolling and Tumbling
TTITLE13=Bo Diddley - Mona
TTITLE14=Howlin' Wolf - Ain't Superstitious
EXTD=A collection of 60 songs by the original artists.This is \nVolume 1 ID3G: 0
EXTT0=
EXTT1=
EXTT2=
EXTT3=
EXTT4=
EXTT5=
EXTT6=
EXTT7=
EXTT8=
EXTT9=
EXTT10=
EXTT11=
EXTT12=
EXTT13=
EXTT14=
PLAYORDER=
